<?xml version="1.0" standalone="no"?>
<!DOCTYPE svg PUBLIC "-//W3C//DTD SVG 20010904//EN"
  "http://www.w3.org/TR/2001/REC-SVG-20010904/DTD/svg10.dtd">
<svg version="1.0" xmlns="http://www.w3.org/2000/svg"
  width="421.000000pt" height="327.000000pt" viewBox="0 0 420 250"
  preserveAspectRatio="xMidYMid meet">
<metadata>
Created by potrace 1.16, written by Peter Selinger 2001-2019
</metadata>
<g transform="translate(0.000000,327.000000) scale(0.100000,-0.100000)"
fill="#fff" stroke="none">
<path d="M2055 3240 c-8 -16 -15 -36 -15 -44 0 -7 -16 -23 -35 -35 -30 -18
-35 -25 -35 -59 0 -26 7 -45 20 -57 18 -16 20 -16 20 -2 0 10 4 17 9 17 14 0
22 -29 15 -57 -4 -16 -2 -28 7 -34 10 -6 7 -9 -11 -9 -14 0 -36 -7 -48 -16
-13 -9 -31 -13 -43 -9 -14 5 -25 2 -30 -6 -7 -12 -12 -12 -30 0 -20 12 -24 11
-39 -9 l-17 -23 -6 23 c-7 28 -41 23 -45 -8 -4 -25 -17 -29 -26 -7 -3 8 -15
15 -26 15 -19 0 -22 -4 -24 -39 -2 -23 -23 -24 -29 -1 -4 16 -12 21 -29 18
-18 -2 -23 -9 -24 -36 0 -33 -24 -72 -24 -40 0 22 -37 33 -55 18 -19 -16 -19
-35 0 -54 11 -10 12 -17 4 -22 -6 -3 -15 -1 -19 6 -4 6 -18 10 -31 8 -32 -4
-41 -57 -10 -65 31 -8 15 -30 -19 -25 -25 3 -30 0 -36 -22 -7 -28 9 -56 32
-56 10 0 13 -7 8 -24 -4 -19 9 -46 60 -122 36 -55 66 -107 66 -116 0 -9 10
-24 22 -32 19 -13 20 -19 10 -41 -17 -37 -15 -45 12 -45 20 0 25 -6 30 -37 4
-21 7 -53 6 -70 0 -25 7 -37 27 -50 25 -16 60 -18 393 -18 412 0 410 0 410 65
0 21 5 42 10 45 6 3 10 19 10 36 0 24 4 29 25 29 25 0 35 23 15 35 -15 9 -12
42 4 48 7 3 16 17 20 32 4 15 36 70 71 123 63 94 76 122 55 122 -5 0 -10 6
-10 14 0 9 7 12 18 9 24 -6 44 19 40 49 -2 19 -9 23 -37 24 -19 0 -36 5 -39
12 -2 7 3 12 12 12 19 0 38 33 30 54 -9 24 -55 20 -61 -4 -5 -19 -6 -19 -18
-3 -11 14 -10 19 2 28 19 14 14 44 -10 59 -15 9 -22 7 -37 -12 -21 -25 -34
-15 -25 21 4 15 1 28 -9 36 -18 15 -56 5 -56 -15 0 -8 -6 -14 -14 -14 -10 0
-14 9 -13 27 2 22 -3 29 -21 31 -17 3 -25 -2 -29 -17 -6 -25 -23 -18 -23 9 0
10 -4 21 -9 24 -15 10 -41 -5 -41 -23 0 -12 -5 -10 -21 9 -14 17 -22 21 -26
13 -6 -16 -33 -17 -33 -2 0 7 -11 8 -30 4 -21 -5 -39 -2 -55 9 -13 9 -35 16
-47 17 -13 0 -17 3 -10 6 15 6 16 40 1 45 -9 3 -8 11 2 28 11 21 14 22 17 8 5
-25 19 -22 37 6 24 37 16 77 -22 101 -17 11 -34 31 -38 45 -9 36 -33 70 -50
70 -8 0 -21 -13 -30 -30z m-30 -395 c-8 -33 -14 -102 -15 -152 0 -64 -4 -93
-12 -93 -43 0 -62 -74 -33 -130 17 -34 40 -41 32 -10 -4 15 0 20 13 20 26 0
32 -14 24 -55 -4 -25 -11 -35 -25 -35 -11 0 -19 5 -19 10 0 16 -46 12 -60 -5
-19 -23 -60 -19 -60 5 0 11 -7 20 -15 20 -10 0 -15 11 -15 35 0 42 12 45 27 8
l10 -28 17 39 c26 58 12 98 -37 110 -36 9 -37 11 -37 56 0 72 33 122 130 200
47 37 86 67 87 66 1 -1 -4 -29 -12 -61z m289 -85 c28 -33 46 -87 46 -136 0
-28 -4 -32 -35 -38 -19 -4 -39 -15 -45 -26 -16 -29 -12 -76 8 -101 l19 -22 7
26 c3 15 11 27 16 27 16 0 12 -47 -5 -64 -8 -8 -15 -22 -15 -30 0 -21 -43 -21
-60 -1 -15 18 -43 19 -70 3 -25 -16 -30 -10 -33 38 -1 30 2 39 16 42 12 2 17
-3 17 -19 l0 -23 20 20 c42 42 31 144 -15 144 -12 0 -15 17 -15 88 -1 48 -7
114 -15 147 -8 33 -15 63 -15 68 0 11 144 -108 174 -143z m-522 85 c-3 -18
-11 -25 -27 -25 -23 0 -53 -26 -42 -37 10 -10 -13 -33 -33 -33 -27 0 -30 -21
-19 -115 8 -73 7 -88 -6 -101 -8 -9 -15 -21 -15 -29 0 -11 -6 -11 -32 -2 -54
19 -67 43 -68 118 0 55 4 73 26 104 40 60 93 97 183 130 20 8 37 14 37 14 1 1
-1 -10 -4 -24z m718 -32 c43 -27 81 -67 101 -105 24 -47 27 -153 4 -162 -8 -3
-15 -12 -15 -21 0 -9 -9 -15 -24 -15 -14 0 -28 -4 -31 -10 -10 -16 -25 -11
-25 8 0 10 -5 23 -11 29 -9 9 -9 35 0 104 12 95 10 105 -23 111 -12 2 -23 15
-28 36 -7 27 -13 32 -37 32 -22 0 -30 5 -33 24 l-5 25 51 -20 c28 -11 62 -27
76 -36z"/>
<path d="M1770 1936 c-25 -7 -83 -30 -130 -52 -82 -38 -89 -39 -190 -38 -69 0
-127 6 -170 18 -88 25 -172 23 -209 -3 -35 -25 -62 -26 -102 -6 -25 13 -37 14
-82 4 -29 -7 -106 -13 -172 -14 -66 0 -128 -2 -137 -3 -21 -2 -24 -37 -5 -49
6 -4 71 -8 142 -9 72 0 153 -5 180 -11 39 -8 56 -8 77 3 37 19 68 17 98 -6 32
-25 125 -27 207 -4 32 9 99 18 148 21 99 5 119 0 268 -62 91 -38 116 -41 255
-34 71 4 75 6 109 43 l36 38 23 -30 c37 -47 64 -53 240 -54 39 0 76 11 160 47
132 58 221 68 344 40 41 -10 107 -20 147 -22 61 -4 77 -2 106 16 40 24 69 27
100 7 18 -11 33 -12 77 -3 30 6 109 11 175 12 147 1 152 2 158 18 13 35 -9 42
-145 43 -73 0 -157 6 -186 13 -46 10 -57 10 -77 -3 -33 -21 -61 -20 -101 5
-42 25 -125 27 -209 5 -86 -24 -204 -31 -260 -17 -26 6 -90 30 -142 52 -97 42
-96 42 -256 40 -65 -1 -109 -20 -133 -57 l-17 -25 -39 38 c-35 34 -45 38 -96
40 -31 1 -77 4 -102 7 -25 3 -65 0 -90 -8z"/>
<path d="M1363 1366 c-53 -25 -78 -52 -92 -102 -24 -86 31 -156 149 -193 167
-51 202 -64 227 -85 57 -49 17 -131 -77 -156 -87 -23 -198 39 -250 140 -20 40
-33 47 -58 32 -10 -7 -8 -29 8 -113 11 -57 20 -105 20 -106 0 -2 11 -3 25 -3
15 0 25 6 25 14 0 26 15 26 65 1 38 -20 64 -25 119 -25 39 0 87 4 106 10 83
23 150 119 136 195 -15 78 -72 115 -264 171 -139 41 -184 93 -128 149 74 74
203 44 286 -68 35 -47 66 -60 77 -31 3 8 -5 53 -17 100 -20 74 -26 84 -45 84
-13 0 -25 -7 -29 -15 -4 -12 -11 -12 -48 5 -64 29 -168 27 -235 -4z"/>
<path d="M2514 1370 c-67 -27 -123 -76 -159 -141 -27 -49 -30 -62 -30 -149 0
-80 4 -102 24 -140 30 -58 85 -116 136 -143 56 -29 203 -36 274 -12 67 22 142
90 172 157 33 74 34 201 1 274 -27 60 -79 113 -142 146 -63 33 -203 37 -276 8z
m189 -41 c97 -27 152 -127 145 -264 -7 -140 -78 -232 -187 -243 -136 -13 -231
88 -231 247 0 93 14 141 57 191 60 70 131 93 216 69z"/>
<path d="M0 1360 c0 -14 7 -20 23 -20 45 0 47 -10 47 -260 0 -250 -2 -260 -47
-260 -17 0 -23 -6 -23 -21 0 -20 3 -20 233 -17 226 3 233 4 276 28 24 14 53
36 63 50 22 30 33 88 24 124 -9 38 -63 94 -97 101 l-31 7 29 18 c53 32 73 67
73 127 0 49 -4 59 -33 88 -18 18 -51 38 -72 44 -23 6 -129 11 -252 11 -206 0
-213 -1 -213 -20z m369 -39 c65 -9 101 -43 101 -94 0 -77 -55 -107 -200 -107
l-100 0 0 105 0 105 73 -1 c39 0 96 -4 126 -8z m65 -279 c44 -25 70 -81 56
-118 -28 -72 -93 -97 -236 -92 l-79 3 -3 119 -3 119 117 -7 c84 -4 126 -11
148 -24z"/>
<path d="M620 1360 c0 -14 7 -20 23 -20 52 -1 52 -1 52 -260 0 -259 0 -259
-52 -260 -16 0 -23 -6 -23 -20 0 -19 7 -20 264 -20 l264 0 10 28 c56 140 62
163 44 169 -9 3 -20 8 -23 10 -4 1 -21 -20 -39 -47 -20 -31 -50 -61 -78 -78
-43 -24 -55 -26 -157 -27 l-110 0 -3 118 -3 117 28 0 c49 -1 107 -18 120 -36
7 -10 13 -33 13 -51 0 -29 3 -33 25 -33 l25 0 0 140 0 140 -25 0 c-21 0 -25
-5 -25 -30 0 -19 -9 -40 -25 -55 -20 -21 -34 -25 -80 -25 l-55 0 0 105 0 105
73 0 c158 0 223 -26 263 -102 16 -31 23 -34 46 -15 15 11 13 19 -14 90 l-30
77 -254 0 c-247 0 -254 -1 -254 -20z"/>
<path d="M1750 1360 c0 -14 7 -20 21 -20 11 0 29 -5 40 -10 18 -10 19 -24 19
-250 0 -226 -1 -240 -19 -250 -11 -5 -29 -10 -40 -10 -14 0 -21 -6 -21 -20 0
-19 7 -20 125 -20 118 0 125 1 125 20 0 15 -7 20 -24 20 -45 0 -56 23 -56 119
l0 88 113 5 c69 3 126 11 148 20 87 37 125 154 78 237 -16 29 -37 48 -73 66
-48 24 -57 25 -243 25 -186 0 -193 -1 -193 -20z m379 -58 c14 -11 32 -36 40
-56 12 -32 12 -41 -4 -81 -23 -61 -52 -75 -160 -75 l-85 0 0 121 0 122 92 -6
c68 -4 98 -11 117 -25z"/>
<path d="M2960 1360 c0 -14 7 -20 21 -20 11 0 29 -5 40 -10 18 -10 19 -24 19
-250 0 -226 -1 -240 -19 -250 -11 -5 -29 -10 -40 -10 -14 0 -21 -6 -21 -20 0
-19 7 -20 125 -20 118 0 125 1 125 20 0 15 -7 20 -24 20 -42 0 -56 24 -56 99
0 64 1 68 38 104 l38 37 82 -111 c45 -61 79 -115 76 -120 -3 -5 -16 -9 -30 -9
-17 0 -24 -5 -24 -20 0 -19 7 -20 135 -20 126 0 135 1 135 19 0 13 -10 21 -33
25 -40 7 -64 33 -185 188 l-91 116 99 96 c71 67 111 99 140 107 28 9 40 18 40
31 0 16 -10 18 -115 18 -108 0 -115 -1 -115 -20 0 -15 7 -20 24 -20 14 0 27
-4 30 -9 3 -5 -50 -67 -119 -137 l-124 -129 -1 118 c0 104 2 119 20 137 11 11
29 20 40 20 13 0 20 7 20 20 0 19 -7 20 -125 20 -118 0 -125 -1 -125 -20z"/>
<path d="M3610 1360 c0 -14 7 -20 21 -20 11 0 29 -5 40 -10 18 -10 19 -24 19
-245 0 -254 -2 -265 -56 -265 -17 0 -24 -5 -24 -20 0 -20 5 -20 267 -18 l267
3 33 89 c18 48 31 92 28 96 -3 4 -14 10 -25 13 -16 4 -25 -3 -39 -31 -22 -43
-53 -73 -101 -98 -27 -14 -59 -18 -145 -18 l-110 -1 -3 119 -3 119 62 -7 c76
-8 99 -25 99 -78 0 -36 2 -38 30 -38 l30 0 0 140 0 140 -30 0 c-27 0 -30 -3
-30 -33 0 -52 -33 -77 -103 -77 l-57 0 0 107 0 106 121 -6 c138 -7 178 -24
214 -91 15 -28 24 -35 40 -30 11 4 22 8 24 10 2 2 -9 38 -25 81 l-30 78 -257
3 c-252 2 -257 2 -257 -18z"/>
</g>
</svg>
